<?xml version="1.0" encoding="UTF-8"?>
<svg width="700pt" height="700pt" version="1.1" viewBox="0 0 700 700" xmlns="http://www.w3.org/2000/svg" xmlns:xlink="http://www.w3.org/1999/xlink">
 <defs>
  <symbol id="o" overflow="visible">
   <path d="m29.312-1.75c-1.5117 0.78125-3.0898 1.3711-4.7344 1.7656-1.6367 0.40625-3.3398 0.60938-5.1094 0.60938-5.3125 0-9.5273-1.4844-12.641-4.4531-3.1055-2.9688-4.6562-7-4.6562-12.094s1.5508-9.125 4.6562-12.094c3.1133-2.9688 7.3281-4.4531 12.641-4.4531 1.7695 0 3.4727 0.19922 5.1094 0.59375 1.6445 0.39844 3.2227 0.99219 4.7344 1.7812v6.5938c-1.5312-1.0391-3.0391-1.8008-4.5156-2.2812-1.4805-0.48828-3.0391-0.73438-4.6719-0.73438-2.9375 0-5.2461 0.94531-6.9219 2.8281-1.6797 1.875-2.5156 4.4648-2.5156 7.7656 0 3.293 0.83594 5.8828 2.5156 7.7656 1.6758 1.875 3.9844 2.8125 6.9219 2.8125 1.6328 0 3.1914-0.23828 4.6719-0.71875 1.4766-0.48828 2.9844-1.2539 4.5156-2.2969z"/>
  </symbol>
  <symbol id="h" overflow="visible">
   <path d="m21.453-17.406c-0.67969-0.3125-1.3516-0.53906-2.0156-0.6875-0.65625-0.15625-1.3203-0.23438-1.9844-0.23438-1.9688 0-3.4844 0.63281-4.5469 1.8906-1.0547 1.2617-1.5781 3.0703-1.5781 5.4219v11.016h-7.6562v-23.922h7.6562v3.9219c0.97656-1.5625 2.1016-2.7031 3.375-3.4219 1.2812-0.71875 2.8125-1.0781 4.5938-1.0781 0.25 0 0.52344 0.011719 0.82812 0.03125 0.30078 0.023438 0.73438 0.070312 1.2969 0.14062z"/>
  </symbol>
  <symbol id="c" overflow="visible">
   <path d="m27.562-12.031v2.1875h-17.891c0.1875 1.793 0.83203 3.1367 1.9375 4.0312 1.1133 0.89844 2.6719 1.3438 4.6719 1.3438 1.6016 0 3.25-0.23438 4.9375-0.70312 1.6875-0.47656 3.4219-1.2031 5.2031-2.1719v5.8906c-1.8047 0.6875-3.6094 1.2031-5.4219 1.5469-1.8125 0.35156-3.6211 0.53125-5.4219 0.53125-4.3359 0-7.7031-1.0977-10.109-3.2969-2.3984-2.207-3.5938-5.2969-3.5938-9.2656 0-3.9062 1.1758-6.9727 3.5312-9.2031 2.3633-2.2383 5.6094-3.3594 9.7344-3.3594 3.7578 0 6.7695 1.1367 9.0312 3.4062 2.2578 2.2617 3.3906 5.2812 3.3906 9.0625zm-7.8594-2.5312c0-1.457-0.42969-2.6289-1.2812-3.5156-0.84375-0.89453-1.9492-1.3438-3.3125-1.3438-1.4922 0-2.6992 0.41797-3.625 1.25-0.91797 0.83594-1.4922 2.0391-1.7188 3.6094z"/>
  </symbol>
  <symbol id="g" overflow="visible">
   <path d="m14.391-10.766c-1.5938 0-2.793 0.27344-3.5938 0.8125-0.80469 0.54297-1.2031 1.3398-1.2031 2.3906 0 0.96875 0.32031 1.7305 0.96875 2.2812 0.64453 0.54297 1.5469 0.8125 2.7031 0.8125 1.4375 0 2.6445-0.51562 3.625-1.5469 0.98828-1.0312 1.4844-2.3203 1.4844-3.875v-0.875zm11.688-2.8906v13.656h-7.7031v-3.5469c-1.0312 1.4492-2.1875 2.5078-3.4688 3.1719s-2.8398 1-4.6719 1c-2.4805 0-4.4961-0.72266-6.0469-2.1719-1.543-1.4453-2.3125-3.3203-2.3125-5.625 0-2.8125 0.96094-4.8672 2.8906-6.1719 1.9375-1.3125 4.9688-1.9688 9.0938-1.9688h4.5156v-0.60938c0-1.207-0.48047-2.0938-1.4375-2.6562-0.94922-0.5625-2.4375-0.84375-4.4688-0.84375-1.6367 0-3.1562 0.16797-4.5625 0.5-1.4062 0.32422-2.7188 0.8125-3.9375 1.4688v-5.8281c1.6445-0.40625 3.2891-0.70703 4.9375-0.90625 1.6562-0.20703 3.3047-0.3125 4.9531-0.3125 4.3203 0 7.4375 0.85547 9.3438 2.5625 1.9141 1.6992 2.875 4.4609 2.875 8.2812z"/>
  </symbol>
  <symbol id="b" overflow="visible">
   <path d="m12.031-30.719v6.7969h7.875v5.4688h-7.875v10.141c0 1.1172 0.21875 1.8711 0.65625 2.2656 0.4375 0.38672 1.3125 0.57812 2.625 0.57812h3.9375v5.4688h-6.5625c-3.0234 0-5.1641-0.62891-6.4219-1.8906-1.2617-1.2578-1.8906-3.3984-1.8906-6.4219v-10.141h-3.7969v-5.4688h3.7969v-6.7969z"/>
  </symbol>
  <symbol id="a" overflow="visible">
   <path d="m19.953-20.422v-12.812h7.6875v33.234h-7.6875v-3.4531c-1.0547 1.4062-2.2148 2.4375-3.4844 3.0938-1.2734 0.65625-2.7422 0.98438-4.4062 0.98438-2.9492 0-5.3711-1.1719-7.2656-3.5156-1.8867-2.3438-2.8281-5.3594-2.8281-9.0469s0.94141-6.7031 2.8281-9.0469c1.8945-2.3438 4.3164-3.5156 7.2656-3.5156 1.6562 0 3.1172 0.33594 4.3906 1 1.2812 0.65625 2.4453 1.6836 3.5 3.0781zm-5.0469 15.484c1.6445 0 2.8945-0.59766 3.75-1.7969 0.86328-1.1953 1.2969-2.9297 1.2969-5.2031 0-2.2812-0.43359-4.0195-1.2969-5.2188-0.85547-1.1953-2.1055-1.7969-3.75-1.7969-1.625 0-2.8711 0.60156-3.7344 1.7969-0.85547 1.1992-1.2812 2.9375-1.2812 5.2188 0 2.2734 0.42578 4.0078 1.2812 5.2031 0.86328 1.1992 2.1094 1.7969 3.7344 1.7969z"/>
  </symbol>
  <symbol id="f" overflow="visible">
   <path d="m16.406-4.9375c1.6328 0 2.8828-0.59766 3.75-1.7969 0.86328-1.1953 1.2969-2.9297 1.2969-5.2031 0-2.2812-0.43359-4.0195-1.2969-5.2188-0.86719-1.1953-2.1172-1.7969-3.75-1.7969-1.6367 0-2.8906 0.60547-3.7656 1.8125-0.875 1.1992-1.3125 2.9336-1.3125 5.2031 0 2.2617 0.4375 3.9961 1.3125 5.2031 0.875 1.1992 2.1289 1.7969 3.7656 1.7969zm-5.0781-15.484c1.0508-1.3945 2.2188-2.4219 3.5-3.0781 1.2812-0.66406 2.7539-1 4.4219-1 2.9453 0 5.3672 1.1719 7.2656 3.5156 1.8945 2.3438 2.8438 5.3594 2.8438 9.0469s-0.94922 6.7031-2.8438 9.0469c-1.8984 2.3438-4.3203 3.5156-7.2656 3.5156-1.668 0-3.1406-0.33594-4.4219-1s-2.4492-1.6914-3.5-3.0781v3.4531h-7.6562v-33.234h7.6562z"/>
  </symbol>
  <symbol id="e" overflow="visible">
   <path d="m0.53125-23.922h7.6562l6.4219 16.234 5.4688-16.234h7.6562l-10.062 26.188c-1.0117 2.6641-2.1953 4.5234-3.5469 5.5781-1.3438 1.0625-3.1211 1.5938-5.3281 1.5938h-4.4219v-5.0156h2.3906c1.3008 0 2.2422-0.21094 2.8281-0.625 0.59375-0.40625 1.0547-1.1484 1.3906-2.2188l0.20312-0.65625z"/>
  </symbol>
  <symbol id="d" overflow="visible">
   <path d="m26.219-30.891v6.75c-1.7617-0.78125-3.4766-1.3672-5.1406-1.7656-1.668-0.40625-3.2422-0.60938-4.7188-0.60938-1.9609 0-3.4141 0.27344-4.3594 0.8125-0.9375 0.54297-1.4062 1.3867-1.4062 2.5312 0 0.85547 0.31641 1.5234 0.95312 2 0.63281 0.46875 1.7852 0.875 3.4531 1.2188l3.5 0.70312c3.5391 0.71875 6.0625 1.8047 7.5625 3.25 1.5 1.4492 2.25 3.5117 2.25 6.1875 0 3.5234-1.0469 6.1406-3.1406 7.8594-2.0859 1.7188-5.2734 2.5781-9.5625 2.5781-2.0234 0-4.0547-0.19531-6.0938-0.57812-2.0312-0.38281-4.0625-0.95703-6.0938-1.7188v-6.9375c2.0312 1.0859 3.9922 1.9023 5.8906 2.4531 1.9062 0.54297 3.7422 0.8125 5.5156 0.8125 1.7891 0 3.1602-0.29688 4.1094-0.89062 0.95703-0.60156 1.4375-1.457 1.4375-2.5625 0-1-0.32422-1.7695-0.96875-2.3125-0.64844-0.53906-1.9375-1.0234-3.875-1.4531l-3.1875-0.70312c-3.1875-0.6875-5.5234-1.7734-7-3.2656-1.4688-1.5-2.2031-3.5156-2.2031-6.0469 0-3.1758 1.0234-5.6172 3.0781-7.3281 2.0508-1.707 5-2.5625 8.8438-2.5625 1.75 0 3.5508 0.13281 5.4062 0.39062 1.8516 0.26172 3.7695 0.65625 5.75 1.1875z"/>
  </symbol>
  <symbol id="n" overflow="visible">
   <path d="m3.4219-9.3125v-14.609h7.6875v2.3906c0 1.293-0.011719 2.918-0.03125 4.875-0.011719 1.9609-0.015625 3.2656-0.015625 3.9219 0 1.9297 0.046875 3.3125 0.14062 4.1562 0.10156 0.84375 0.28125 1.4609 0.53125 1.8438 0.3125 0.5 0.71875 0.88672 1.2188 1.1562 0.50781 0.27344 1.0938 0.40625 1.75 0.40625 1.5938 0 2.8438-0.60938 3.75-1.8281 0.91406-1.2266 1.375-2.9297 1.375-5.1094v-11.812h7.6406v23.922h-7.6406v-3.4531c-1.1562 1.3867-2.3828 2.4141-3.6719 3.0781-1.2812 0.66406-2.6992 1-4.25 1-2.7734 0-4.8828-0.84766-6.3281-2.5469-1.4375-1.6953-2.1562-4.1602-2.1562-7.3906z"/>
  </symbol>
  <symbol id="m" overflow="visible">
   <path d="m3.6719-23.922h7.6562v23.922h-7.6562zm0-9.3125h7.6562v6.2344h-7.6562z"/>
  </symbol>
  <symbol id="l" overflow="visible">
   <path d="m15.062-19.031c-1.6992 0-2.9961 0.60938-3.8906 1.8281-0.88672 1.2188-1.3281 2.9766-1.3281 5.2656 0 2.293 0.44141 4.0469 1.3281 5.2656 0.89453 1.2188 2.1914 1.8281 3.8906 1.8281 1.6641 0 2.9375-0.60938 3.8125-1.8281 0.88281-1.2188 1.3281-2.9727 1.3281-5.2656 0-2.2891-0.44531-4.0469-1.3281-5.2656-0.875-1.2188-2.1484-1.8281-3.8125-1.8281zm0-5.4688c4.1133 0 7.3281 1.1094 9.6406 3.3281s3.4688 5.2969 3.4688 9.2344c0 3.9297-1.1562 7.0078-3.4688 9.2344-2.3125 2.2188-5.5273 3.3281-9.6406 3.3281-4.1367 0-7.3711-1.1094-9.7031-3.3281-2.3242-2.2266-3.4844-5.3047-3.4844-9.2344 0-3.9375 1.1602-7.0156 3.4844-9.2344 2.332-2.2188 5.5664-3.3281 9.7031-3.3281z"/>
  </symbol>
  <symbol id="k" overflow="visible">
   <path d="m20.375-17.203c2.1562 0.5625 3.7891 1.5312 4.9062 2.9062 1.1133 1.375 1.6719 3.1211 1.6719 5.2344 0 3.168-1.2109 5.5742-3.625 7.2188-2.418 1.6484-5.9492 2.4688-10.594 2.4688-1.6367 0-3.2773-0.13672-4.9219-0.40625-1.6484-0.25781-3.2773-0.65625-4.8906-1.1875v-6.3438c1.5391 0.77344 3.0664 1.3555 4.5781 1.75 1.5195 0.38672 3.0156 0.57812 4.4844 0.57812 2.1758 0 3.8438-0.375 5-1.125 1.1641-0.75 1.75-1.832 1.75-3.25 0-1.4453-0.59375-2.5469-1.7812-3.2969s-2.9453-1.125-5.2656-1.125h-3.2969v-5.2969h3.4688c2.0625 0 3.5977-0.32031 4.6094-0.96875 1.0078-0.64453 1.5156-1.6289 1.5156-2.9531 0-1.2266-0.49219-2.1758-1.4688-2.8438-0.98047-0.67578-2.3711-1.0156-4.1719-1.0156-1.3242 0-2.6641 0.15234-4.0156 0.45312-1.3555 0.30469-2.6992 0.74609-4.0312 1.3281v-6.0312c1.625-0.44531 3.2344-0.78516 4.8281-1.0156 1.5938-0.22656 3.1602-0.34375 4.7031-0.34375 4.1328 0 7.2344 0.68359 9.2969 2.0469 2.0625 1.3555 3.0938 3.4023 3.0938 6.1406 0 1.8672-0.49609 3.3906-1.4844 4.5781-0.98047 1.1875-2.4336 2.0234-4.3594 2.5z"/>
  </symbol>
  <symbol id="j" overflow="visible">
   <path d="m15.828-15.75c-1.4375 0-2.5156 0.46875-3.2344 1.4062-0.71875 0.92969-1.0781 2.3281-1.0781 4.2031 0 1.8672 0.35938 3.2656 1.0781 4.2031 0.71875 0.92969 1.7969 1.3906 3.2344 1.3906 1.457 0 2.5469-0.46094 3.2656-1.3906 0.71875-0.9375 1.0781-2.3359 1.0781-4.2031 0-1.875-0.35938-3.2734-1.0781-4.2031-0.71875-0.9375-1.8086-1.4062-3.2656-1.4062zm10.172-15.312v5.8906c-1.3555-0.63281-2.6328-1.1016-3.8281-1.4062-1.1992-0.3125-2.3672-0.46875-3.5-0.46875-2.4492 0-4.3594 0.68359-5.7344 2.0469-1.3672 1.3555-2.1641 3.3711-2.3906 6.0469 0.94531-0.69531 1.9688-1.2188 3.0625-1.5625 1.0938-0.35156 2.2891-0.53125 3.5938-0.53125 3.2578 0 5.8906 0.96094 7.8906 2.875 2 1.9062 3 4.4023 3 7.4844 0 3.4297-1.1211 6.1719-3.3594 8.2344-2.2305 2.0547-5.2266 3.0781-8.9844 3.0781-4.1484 0-7.3555-1.3984-9.625-4.2031-2.2734-2.8008-3.4062-6.7695-3.4062-11.906 0-5.2695 1.3281-9.4102 3.9844-12.422 2.6562-3.0078 6.2969-4.5156 10.922-4.5156 1.4688 0 2.8906 0.11719 4.2656 0.34375 1.3828 0.21875 2.7539 0.55859 4.1094 1.0156z"/>
  </symbol>
  <symbol id="i" overflow="visible">
   <path d="m4.6406-31.891h20.438v6.0469h-13.891v4.9375c0.63281-0.17578 1.2656-0.3125 1.8906-0.40625 0.63281-0.09375 1.2969-0.14062 1.9844-0.14062 3.8828 0 6.9102 0.97656 9.0781 2.9219 2.1641 1.9492 3.25 4.6562 3.25 8.125 0 3.4492-1.1836 6.1523-3.5469 8.1094-2.3555 1.9492-5.625 2.9219-9.8125 2.9219-1.8047 0-3.5938-0.17969-5.375-0.53125-1.7734-0.34375-3.5312-0.875-5.2812-1.5938v-6.4688c1.7383 1 3.3828 1.75 4.9375 2.25 1.5625 0.49219 3.0352 0.73438 4.4219 0.73438 1.9883 0 3.5547-0.48438 4.7031-1.4531 1.1445-0.97656 1.7188-2.3008 1.7188-3.9688 0-1.6758-0.57422-3-1.7188-3.9688-1.1484-0.96875-2.7148-1.4531-4.7031-1.4531-1.1875 0-2.4531 0.15625-3.7969 0.46875-1.3359 0.30469-2.7656 0.77344-4.2969 1.4062z"/>
  </symbol>
 </defs>
 <g>
  <path d="m558.6 245c0.86719-2.5977 1.3398-5.3125 1.3984-8.0508v-18.988c-0.027344-5.3359-1.7305-10.535-4.8711-14.852s-7.5586-7.5391-12.629-9.2109v-32.812c0.089844-1.1914 0.089844-2.3906 0-3.5859h8.75c9.3789 0 18.043-5.0039 22.734-13.125 4.6875-8.1211 4.6875-18.129 0-26.25-4.6914-8.1211-13.355-13.125-22.734-13.125h-157.5c-5.4141 0.015625-10.695 1.707-15.113 4.8398-4.418 3.1328-7.7578 7.5547-9.5625 12.66h-1.5742c-4.832 0-8.75 3.918-8.75 8.75s3.918 8.75 8.75 8.75h1.5742c1.8047 5.1055 5.1445 9.5273 9.5625 12.66 4.418 3.1328 9.6992 4.8242 15.113 4.8398h17.5v43.75c0 6.9609 2.7656 13.641 7.6875 18.562s11.602 7.6875 18.562 7.6875 13.641-2.7656 18.562-7.6875 7.6875-11.602 7.6875-18.562v-43.75h26.25c-0.089844 1.1953-0.089844 2.3945 0 3.5859v32.812c-5.0703 1.6719-9.4883 4.8945-12.629 9.2109s-4.8438 9.5156-4.8711 14.852v19.078c0.058594 2.7383 0.53125 5.4492 1.3984 8.0469-14.453 0.5-28.148 6.5898-38.203 16.984-10.055 10.398-15.68 24.293-15.695 38.754v168.44c0.023438 14.793 5.9141 28.969 16.383 39.418 10.465 10.449 24.652 16.32 39.441 16.32h80.938c14.777-0.023438 28.941-5.9023 39.387-16.352 10.449-10.445 16.328-24.609 16.352-39.387v-168.44c0.007812-14.477-5.6094-28.391-15.664-38.809-10.059-10.414-23.766-16.516-38.234-17.016zm-112.35-43.75c0 2.3203-0.92188 4.5469-2.5625 6.1875s-3.8672 2.5625-6.1875 2.5625c-2.3516-0.03125-4.5898-1.0117-6.2109-2.7109-1.6562-1.5703-2.5742-3.7617-2.5391-6.0391v-43.75h17.5zm-52.5-61.25c-4.832 0-8.75-3.918-8.75-8.75s3.918-8.75 8.75-8.75h157.5c4.832 0 8.75 3.918 8.75 8.75s-3.918 8.75-8.75 8.75zm131.25 21.086v31.414h-17.5v-31.414c0-1.9805 1.6055-3.5859 3.5859-3.5859h10.328c0.94922 0 1.8633 0.37891 2.5352 1.0508s1.0508 1.5859 1.0508 2.5352zm-35 56.875c0-4.3945 3.5664-7.9609 7.9609-7.9609h36.578c4.3945 0 7.9609 3.5664 7.9609 7.9609v19.078c0 4.3945-3.5664 7.9609-7.9609 7.9609h-36.578c-4.3945 0-7.9609-3.5664-7.9609-7.9609zm105 251.3c0 10.141-4.0273 19.867-11.199 27.039s-16.898 11.199-27.039 11.199h-80.938c-10.148 0-19.883-4.0273-27.066-11.195-7.1875-7.168-11.234-16.895-11.258-27.043v-5.5117h157.5zm0-23.012h-157.5v-122.5h157.5zm0-140h-157.5v-5.4258c0-10.164 4.0391-19.91 11.227-27.098s16.934-11.227 27.098-11.227h80.938c10.148 0.023438 19.875 4.0703 27.043 11.258 7.168 7.1836 11.195 16.918 11.195 27.066z"/>
  <path d="m315 140h17.5c4.832 0 8.75-3.918 8.75-8.75s-3.918-8.75-8.75-8.75h-17.5c-4.832 0-8.75 3.918-8.75 8.75s3.918 8.75 8.75 8.75z"/>
  <path d="m280 140c4.832 0 8.75-3.918 8.75-8.75s-3.918-8.75-8.75-8.75h-17.5c-4.832 0-8.75 3.918-8.75 8.75s3.918 8.75 8.75 8.75z"/>
  <path d="m201.25 131.25c0 2.3203 0.92188 4.5469 2.5625 6.1875s3.8672 2.5625 6.1875 2.5625h17.5c4.832 0 8.75-3.918 8.75-8.75s-3.918-8.75-8.75-8.75h-17.5c-4.832 0-8.75 3.918-8.75 8.75z"/>
  <path d="m345.54 96.688-15.137-8.75h-0.003906c-2.0273-1.1602-4.4336-1.4648-6.6875-0.83984-2.25 0.625-4.1602 2.125-5.2969 4.1641-2.3633 4.207-0.875 9.5273 3.3242 11.902l15.227 8.75h-0.003906c1.3086 0.73828 2.7852 1.1328 4.2891 1.1367 3.1562-0.007812 6.0664-1.7109 7.6133-4.4648 2.3594-4.2031 0.87109-9.5273-3.3242-11.898z"/>
  <path d="m299.95 70.699-15.227-8.75h0.003906c-2.0156-1.2773-4.4609-1.6797-6.7773-1.1133-2.3164 0.56641-4.3008 2.0547-5.4922 4.1211-1.1953 2.0625-1.4922 4.5234-0.82812 6.8164 0.66406 2.2891 2.2344 4.207 4.3477 5.3125l15.227 8.75h-0.003906c4.2031 2.418 9.5703 0.96875 11.988-3.2344 2.418-4.207 0.96484-9.5742-3.2383-11.988z"/>
  <path d="m230.39 51.363 15.227 8.75c4.2031 2.4141 9.5703 0.96484 11.988-3.2383 2.4141-4.2031 0.96484-9.5703-3.2383-11.988l-15.227-8.75c-4.2031-2.4141-9.5703-0.96484-11.988 3.2383-2.4141 4.2031-0.96484 9.5703 3.2383 11.988z"/>
  <path d="m326.02 175.61c1.5352 0.011719 3.043-0.38281 4.375-1.1367l15.137-8.75h0.003906c4.2031-2.418 5.6523-7.7852 3.2344-11.988-2.4141-4.2031-7.7812-5.6562-11.984-3.2383l-15.227 8.75c-3.4531 1.957-5.1562 5.9922-4.1484 9.832 1.0039 3.8359 4.4688 6.5195 8.4375 6.5312z"/>
  <path d="m280.44 201.25c1.5117-0.03125 2.9883-0.45312 4.2891-1.2266l15.227-8.75h-0.003906c2.0273-1.1523 3.5078-3.0664 4.1133-5.3203 0.60938-2.25 0.29297-4.6484-0.875-6.6641-2.4023-4.168-7.7188-5.6133-11.898-3.2383l-15.227 8.75c-4.168 2.4023-5.6133 7.7188-3.2383 11.898 1.5234 2.7852 4.4375 4.5273 7.6133 4.5508z"/>
  <path d="m234.76 227.5c1.5039-0.003906 2.9805-0.39453 4.2891-1.1367l15.227-8.75h-0.003906c4.1992-2.375 5.6875-7.6953 3.3281-11.902-1.1406-2.0391-3.0508-3.5391-5.3008-4.1641-2.2539-0.62109-4.6602-0.32031-6.6875 0.83984l-15.227 8.75c-4.0391 2.5195-5.3242 7.8086-2.8867 11.902 1.4844 2.6445 4.2305 4.332 7.2617 4.4609z"/>
  <path d="m358.75 280h-8.75c0.28125-1.4414 0.42578-2.9062 0.4375-4.375 0.019531-5.0469-1.7188-9.9453-4.9102-13.855-3.1914-3.9102-7.6406-6.5898-12.59-7.582 0.085938-1.0781 0.085938-2.1602 0-3.2383v-11.898c0-5.4609-2.1992-10.691-6.0977-14.512-3.9023-3.8203-9.1797-5.9062-14.641-5.7891h-11.898c-5.3828 0-10.547 2.1406-14.355 5.9453-3.8047 3.8086-5.9453 8.9727-5.9453 14.355v11.898c-0.085938 1.0781-0.085938 2.1602 0 3.2383-4.9492 0.99219-9.3984 3.6719-12.59 7.582-3.1914 3.9102-4.9297 8.8086-4.9102 13.855 0.011719 1.4688 0.15625 2.9336 0.4375 4.375h-9.1875c-7.9219 0.023438-15.516 3.168-21.137 8.7539-5.6172 5.5859-8.8086 13.16-8.875 21.082l-8.8398 118.91h-32.023c-2.6992-13.289-11.406-24.578-23.578-30.559-12.168-5.9805-26.426-5.9805-38.594 0-12.172 5.9805-20.879 17.27-23.578 30.559h-0.875c-2.5117 0.003906-4.9023 1.0859-6.5625 2.9766-1.6406 1.8711-2.4023 4.3516-2.1016 6.8242l8.75 70c0.53125 4.3828 4.2461 7.6875 8.6641 7.6992h70c4.4492 0.03125 8.2148-3.2812 8.75-7.6992l7.6992-62.301h22.137l-3.5859 48.301c-0.046875 8.0117 3.0859 15.719 8.7109 21.426 5.6289 5.7109 13.289 8.9531 21.301 9.0234h132.48c8.1211-0.11328 15.863-3.4688 21.496-9.3203 5.6367-5.8477 8.7031-13.707 8.5156-21.828l-13.738-183.75c-0.042969-7.957-3.2188-15.57-8.8359-21.203-5.6133-5.6328-13.223-8.8281-21.176-8.8984zm-218.75 131.25c5.4141 0.015625 10.695 1.707 15.113 4.8398 4.418 3.1328 7.7578 7.5547 9.5625 12.66h-49.352c1.8047-5.1055 5.1445-9.5273 9.5625-12.66 4.418-3.1328 9.6992-4.8242 15.113-4.8398zm27.301 87.5h-54.602l-6.5625-52.5h67.727zm130.2-259.7c0-0.74219 0.29688-1.457 0.82031-1.9805 0.52344-0.52344 1.2383-0.82031 1.9805-0.82031h11.898c0.74219 0 1.457 0.29688 1.9805 0.82031 0.52344 0.52344 0.82031 1.2383 0.82031 1.9805v11.898c0 1.5469-1.2539 2.8008-2.8008 2.8008h-11.898c-1.5469 0-2.8008-1.2539-2.8008-2.8008zm-13.125 32.199h43.75c2.418 0 4.375 1.957 4.375 4.375s-1.957 4.375-4.375 4.375h-43.75c-2.418 0-4.375-1.957-4.375-4.375s1.957-4.375 4.375-4.375zm88.113 236.25h-132.48c-6.8047-0.089844-12.324-5.5352-12.512-12.336l3.5859-48.914h40.164c4.832 0 8.75-3.918 8.75-8.75s-3.918-8.75-8.75-8.75h-38.852l8.75-118.3c-0.046876-3.3867 1.2578-6.6562 3.6211-9.0859 2.3594-2.4258 5.5938-3.8164 8.9805-3.8633h105c3.4844 0.11328 6.7734 1.625 9.1289 4.1914 2.3555 2.5703 3.5742 5.9805 3.3828 9.457l13.738 183.75c-0.09375 6.8867-5.6289 12.461-12.512 12.602z"/>
  <path d="m323.75 420c-9.2812 0-18.184 3.6875-24.75 10.25-6.5625 6.5664-10.25 15.469-10.25 24.75s3.6875 18.184 10.25 24.75c6.5664 6.5625 15.469 10.25 24.75 10.25s18.184-3.6875 24.75-10.25c6.5625-6.5664 10.25-15.469 10.25-24.75s-3.6875-18.184-10.25-24.75c-6.5664-6.5625-15.469-10.25-24.75-10.25zm0 52.5c-4.6406 0-9.0938-1.8438-12.375-5.125s-5.125-7.7344-5.125-12.375 1.8438-9.0938 5.125-12.375 7.7344-5.125 12.375-5.125 9.0938 1.8438 12.375 5.125 5.125 7.7344 5.125 12.375-1.8438 9.0938-5.125 12.375-7.7344 5.125-12.375 5.125z"/>
  <path d="m306.25 376.25c0-6.9609-2.7656-13.641-7.6875-18.562s-11.602-7.6875-18.562-7.6875-13.641 2.7656-18.562 7.6875-7.6875 11.602-7.6875 18.562 2.7656 13.641 7.6875 18.562 11.602 7.6875 18.562 7.6875 13.641-2.7656 18.562-7.6875 7.6875-11.602 7.6875-18.562zm-26.25 8.75c-3.5391 0-6.7305-2.1328-8.082-5.4023-1.3555-3.2695-0.60938-7.0312 1.8945-9.5352s6.2656-3.25 9.5352-1.8945c3.2695 1.3516 5.4023 4.543 5.4023 8.082 0 2.3203-0.92188 4.5469-2.5625 6.1875s-3.8672 2.5625-6.1875 2.5625z"/>
  <path d="m328.12 358.75c5.8008 0 11.367-2.3047 15.469-6.4062s6.4062-9.668 6.4062-15.469-2.3047-11.367-6.4062-15.469-9.668-6.4062-15.469-6.4062-11.367 2.3047-15.469 6.4062-6.4062 9.668-6.4062 15.469 2.3047 11.367 6.4062 15.469 9.668 6.4062 15.469 6.4062zm0-26.25c1.7695 0 3.3633 1.0664 4.043 2.6992 0.67578 1.6367 0.30078 3.5195-0.94922 4.7695s-3.1328 1.625-4.7695 0.94922c-1.6328-0.67969-2.6992-2.2734-2.6992-4.043 0-2.418 1.957-4.375 4.375-4.375z"/>
  <use x="70" y="691.25" xlink:href="#o"/>
  <use x="102.109375" y="691.25" xlink:href="#h"/>
  <use x="123.683594" y="691.25" xlink:href="#c"/>
  <use x="153.355469" y="691.25" xlink:href="#g"/>
  <use x="182.878906" y="691.25" xlink:href="#b"/>
  <use x="203.792969" y="691.25" xlink:href="#c"/>
  <use x="233.464844" y="691.25" xlink:href="#a"/>
  <use x="280.011719" y="691.25" xlink:href="#f"/>
  <use x="311.328125" y="691.25" xlink:href="#e"/>
  <use x="355.078125" y="691.25" xlink:href="#d"/>
  <use x="386.589844" y="691.25" xlink:href="#b"/>
  <use x="407.503906" y="691.25" xlink:href="#n"/>
  <use x="438.648438" y="691.25" xlink:href="#a"/>
  <use x="469.964844" y="691.25" xlink:href="#m"/>
  <use x="484.960937" y="691.25" xlink:href="#l"/>
  <use x="530.25" y="691.25" xlink:href="#k"/>
  <use x="560.691406" y="691.25" xlink:href="#j"/>
  <use x="591.132812" y="691.25" xlink:href="#i"/>
 </g>
</svg>
