<?xml version="1.0" encoding="UTF-8"?>
<svg width="700pt" height="700pt" version="1.1" viewBox="0 0 700 700" xmlns="http://www.w3.org/2000/svg" xmlns:xlink="http://www.w3.org/1999/xlink">
 <defs>
  <symbol id="h" overflow="visible">
   <path d="m21.547-1.2812c-1.1172 0.57422-2.2773 1.0078-3.4844 1.2969-1.1992 0.28906-2.4531 0.4375-3.7656 0.4375-3.8984 0-6.9922-1.0859-9.2812-3.2656-2.2812-2.1875-3.4219-5.1484-3.4219-8.8906 0-3.7383 1.1406-6.6953 3.4219-8.875 2.2891-2.1875 5.3828-3.2812 9.2812-3.2812 1.3125 0 2.5664 0.14844 3.7656 0.4375 1.207 0.29297 2.3672 0.72656 3.4844 1.2969v4.8594c-1.125-0.76953-2.2344-1.332-3.3281-1.6875-1.0859-0.35156-2.2266-0.53125-3.4219-0.53125-2.1562 0-3.8555 0.69531-5.0938 2.0781-1.2422 1.375-1.8594 3.2773-1.8594 5.7031 0 2.418 0.61719 4.3203 1.8594 5.7031 1.2383 1.3867 2.9375 2.0781 5.0938 2.0781 1.1953 0 2.3359-0.17578 3.4219-0.53125 1.0938-0.36328 2.2031-0.92578 3.3281-1.6875z"/>
  </symbol>
  <symbol id="b" overflow="visible">
   <path d="m15.766-12.797c-0.49219-0.22656-0.98047-0.39453-1.4688-0.5-0.49219-0.11328-0.98047-0.17188-1.4688-0.17188-1.4492 0-2.5625 0.46484-3.3438 1.3906-0.77344 0.92969-1.1562 2.25-1.1562 3.9688v8.1094h-5.625v-17.578h5.625v2.875c0.71875-1.1445 1.5469-1.9844 2.4844-2.5156s2.0547-0.79688 3.3594-0.79688c0.1875 0 0.39062 0.011719 0.60938 0.03125 0.22656 0.011719 0.55078 0.042969 0.96875 0.09375z"/>
  </symbol>
  <symbol id="a" overflow="visible">
   <path d="m20.25-8.8438v1.6094h-13.141c0.13281 1.3125 0.60938 2.3047 1.4219 2.9688 0.82031 0.65625 1.9688 0.98438 3.4375 0.98438 1.1758 0 2.3828-0.17188 3.625-0.51562 1.2383-0.35156 2.5156-0.89062 3.8281-1.6094v4.3438c-1.3359 0.5-2.668 0.875-4 1.125-1.3242 0.25781-2.6484 0.39062-3.9688 0.39062-3.1875 0-5.668-0.80469-7.4375-2.4219-1.7617-1.6133-2.6406-3.8828-2.6406-6.8125 0-2.8633 0.86328-5.1172 2.5938-6.7656 1.7383-1.6445 4.125-2.4688 7.1562-2.4688 2.7695 0 4.9844 0.83594 6.6406 2.5 1.6562 1.668 2.4844 3.8906 2.4844 6.6719zm-5.7656-1.8594c0-1.0703-0.3125-1.9297-0.9375-2.5781-0.625-0.65625-1.4453-0.98438-2.4531-0.98438-1.0859 0-1.9688 0.30859-2.6562 0.92188-0.67969 0.60547-1.1016 1.4844-1.2656 2.6406z"/>
  </symbol>
  <symbol id="e" overflow="visible">
   <path d="m10.578-7.9062c-1.168 0-2.0469 0.19922-2.6406 0.59375-0.59375 0.39844-0.89062 0.98047-0.89062 1.75 0 0.71875 0.23828 1.2812 0.71875 1.6875 0.47656 0.39844 1.1406 0.59375 1.9844 0.59375 1.0625 0 1.9531-0.37891 2.6719-1.1406 0.71875-0.75781 1.0781-1.707 1.0781-2.8438v-0.64062zm8.5938-2.125v10.031h-5.6719v-2.6094c-0.75 1.0742-1.6016 1.8555-2.5469 2.3438-0.9375 0.47656-2.0859 0.71875-3.4375 0.71875-1.8242 0-3.3047-0.53125-4.4375-1.5938-1.1367-1.0625-1.7031-2.4414-1.7031-4.1406 0-2.0625 0.70703-3.5703 2.125-4.5312 1.4258-0.96875 3.6562-1.4531 6.6875-1.4531h3.3125v-0.4375c0-0.88281-0.35156-1.5312-1.0469-1.9375-0.69922-0.41406-1.793-0.625-3.2812-0.625-1.2109 0-2.3359 0.12109-3.375 0.35938-1.0312 0.24219-1.9922 0.60156-2.875 1.0781v-4.2812c1.1953-0.28906 2.4062-0.51562 3.625-0.67188s2.4297-0.23438 3.6406-0.23438c3.1758 0 5.4688 0.63281 6.875 1.8906 1.4062 1.25 2.1094 3.2812 2.1094 6.0938z"/>
  </symbol>
  <symbol id="d" overflow="visible">
   <path d="m8.8438-22.578v5h5.7969v4.0156h-5.7969v7.4531c0 0.8125 0.16016 1.3672 0.48438 1.6562 0.32031 0.29297 0.96875 0.4375 1.9375 0.4375h2.875v4.0156h-4.8125c-2.2188 0-3.793-0.46094-4.7188-1.3906-0.92969-0.92578-1.3906-2.5-1.3906-4.7188v-7.4531h-2.7969v-4.0156h2.7969v-5z"/>
  </symbol>
  <symbol id="l" overflow="visible">
   <path d="m14.672-15.016v-9.4219h5.6406v24.438h-5.6406v-2.5469c-0.78125 1.043-1.6406 1.8047-2.5781 2.2812-0.92969 0.47656-2 0.71875-3.2188 0.71875-2.168 0-3.9492-0.85938-5.3438-2.5781-1.3984-1.7188-2.0938-3.9375-2.0938-6.6562 0-2.707 0.69531-4.9219 2.0938-6.6406 1.3945-1.7266 3.1758-2.5938 5.3438-2.5938 1.207 0 2.2812 0.24609 3.2188 0.73438 0.9375 0.49219 1.7969 1.2461 2.5781 2.2656zm-3.7188 11.391c1.207 0 2.1289-0.4375 2.7656-1.3125 0.63281-0.88281 0.95312-2.1641 0.95312-3.8438 0-1.6758-0.32031-2.9531-0.95312-3.8281-0.63672-0.875-1.5586-1.3125-2.7656-1.3125-1.1875 0-2.1016 0.4375-2.7344 1.3125-0.63672 0.875-0.95312 2.1523-0.95312 3.8281 0 1.6797 0.31641 2.9609 0.95312 3.8438 0.63281 0.875 1.5469 1.3125 2.7344 1.3125z"/>
  </symbol>
  <symbol id="k" overflow="visible">
   <path d="m12.062-3.625c1.1953 0 2.1133-0.4375 2.75-1.3125 0.63281-0.88281 0.95312-2.1641 0.95312-3.8438 0-1.6758-0.32031-2.9531-0.95312-3.8281-0.63672-0.875-1.5547-1.3125-2.75-1.3125-1.2109 0-2.1367 0.44531-2.7812 1.3281-0.63672 0.875-0.95312 2.1484-0.95312 3.8125 0 1.668 0.31641 2.9453 0.95312 3.8281 0.64453 0.88672 1.5703 1.3281 2.7812 1.3281zm-3.7344-11.391c0.76953-1.0195 1.625-1.7734 2.5625-2.2656 0.94531-0.48828 2.0312-0.73438 3.25-0.73438 2.1641 0 3.9453 0.86719 5.3438 2.5938 1.3945 1.7188 2.0938 3.9336 2.0938 6.6406 0 2.7188-0.69922 4.9375-2.0938 6.6562-1.3984 1.7188-3.1797 2.5781-5.3438 2.5781-1.2188 0-2.3047-0.24219-3.25-0.71875-0.9375-0.48828-1.793-1.25-2.5625-2.2812v2.5469h-5.625v-24.438h5.625z"/>
  </symbol>
  <symbol id="j" overflow="visible">
   <path d="m0.39062-17.578h5.625l4.7188 11.922 4.0312-11.922h5.6094l-7.3906 19.25c-0.74219 1.9453-1.6055 3.3125-2.5938 4.0938-0.99219 0.78125-2.2969 1.1719-3.9219 1.1719h-3.25v-3.6875h1.7656c0.94531 0 1.6328-0.15234 2.0625-0.45312 0.4375-0.30469 0.78125-0.85156 1.0312-1.6406l0.15625-0.48438z"/>
  </symbol>
  <symbol id="i" overflow="visible">
   <path d="m2.9531-23.438h6.0469v18.875h10.609v4.5625h-16.656z"/>
  </symbol>
  <symbol id="g" overflow="visible">
   <path d="m2.5156-6.8438v-10.734h5.6562v1.75c0 0.96094-0.007813 2.1562-0.015625 3.5938-0.011719 1.4375-0.015625 2.3984-0.015625 2.875 0 1.418 0.035156 2.4375 0.10938 3.0625 0.070312 0.61719 0.19531 1.0625 0.375 1.3438 0.22656 0.375 0.52344 0.66406 0.89062 0.85938 0.375 0.19922 0.80078 0.29688 1.2812 0.29688 1.1758 0 2.0977-0.44531 2.7656-1.3438 0.67578-0.90625 1.0156-2.1602 1.0156-3.7656v-8.6719h5.6094v17.578h-5.6094v-2.5469c-0.85547 1.0312-1.7578 1.793-2.7031 2.2812-0.94922 0.47656-1.9922 0.71875-3.125 0.71875-2.0312 0-3.5781-0.61719-4.6406-1.8594-1.0625-1.25-1.5938-3.0625-1.5938-5.4375z"/>
  </symbol>
  <symbol id="w" overflow="visible">
   <path d="m2.7031-17.578h5.625v17.578h-5.625zm0-6.8594h5.625v4.5938h-5.625z"/>
  </symbol>
  <symbol id="v" overflow="visible">
   <path d="m1.8438-17.578h15.328v3.9219l-9.2656 9.6406h9.2656v4.0156h-15.734v-3.9219l9.2656-9.6406h-8.8594z"/>
  </symbol>
  <symbol id="u" overflow="visible">
   <path d="m0.48438-17.578h5.625l4.375 12.141 4.375-12.141h5.625l-6.9219 17.578h-6.1719z"/>
  </symbol>
  <symbol id="t" overflow="visible">
   <path d="m2.7031-24.438h5.625v24.438h-5.625z"/>
  </symbol>
  <symbol id="f" overflow="visible">
   <path d="m20.375-10.703v10.703h-5.6406v-8.1719c0-1.5312-0.039063-2.582-0.10938-3.1562-0.0625-0.58203-0.18359-1.0078-0.35938-1.2812-0.21875-0.36328-0.51562-0.64453-0.89062-0.84375-0.375-0.20703-0.80469-0.3125-1.2812-0.3125-1.1797 0-2.1016 0.45312-2.7656 1.3594-0.66797 0.90625-1 2.1562-1 3.75v8.6562h-5.625v-24.438h5.625v9.4219c0.84375-1.0195 1.7383-1.7734 2.6875-2.2656 0.95703-0.48828 2.0078-0.73438 3.1562-0.73438 2.0312 0 3.5703 0.625 4.625 1.875 1.0508 1.25 1.5781 3.0625 1.5781 5.4375z"/>
  </symbol>
  <symbol id="c" overflow="visible">
   <path d="m11.062-13.984c-1.2422 0-2.1875 0.44922-2.8438 1.3438-0.65625 0.88672-0.98438 2.1719-0.98438 3.8594s0.32812 2.9805 0.98438 3.875c0.65625 0.89844 1.6016 1.3438 2.8438 1.3438 1.2266 0 2.1641-0.44531 2.8125-1.3438 0.65625-0.89453 0.98438-2.1875 0.98438-3.875s-0.32812-2.9727-0.98438-3.8594c-0.64844-0.89453-1.5859-1.3438-2.8125-1.3438zm0-4.0312c3.0312 0 5.3945 0.82031 7.0938 2.4531 1.6953 1.6367 2.5469 3.8984 2.5469 6.7812 0 2.8984-0.85156 5.1641-2.5469 6.7969-1.6992 1.625-4.0625 2.4375-7.0938 2.4375s-5.4062-0.8125-7.125-2.4375c-1.7109-1.6328-2.5625-3.8984-2.5625-6.7969 0-2.8828 0.85156-5.1445 2.5625-6.7812 1.7188-1.6328 4.0938-2.4531 7.125-2.4531z"/>
  </symbol>
  <symbol id="s" overflow="visible">
   <path d="m14.266-24.438v3.7031h-3.1094c-0.79297 0-1.3438 0.14844-1.6562 0.4375-0.3125 0.28125-0.46875 0.77734-0.46875 1.4844v1.2344h4.7969v4.0156h-4.7969v13.562h-5.625v-13.562h-2.7969v-4.0156h2.7969v-1.2344c0-1.9141 0.53125-3.332 1.5938-4.25 1.0703-0.91406 2.7266-1.375 4.9688-1.375z"/>
  </symbol>
  <symbol id="r" overflow="visible">
   <path d="m19-14.672c0.70703-1.082 1.5508-1.9102 2.5312-2.4844 0.97656-0.57031 2.0547-0.85938 3.2344-0.85938 2.0195 0 3.5547 0.625 4.6094 1.875 1.0625 1.25 1.5938 3.0625 1.5938 5.4375v10.703h-5.6562v-9.1719c0.007812-0.13281 0.015625-0.27344 0.015625-0.42188 0.007813-0.14453 0.015625-0.35156 0.015625-0.625 0-1.25-0.18359-2.1484-0.54688-2.7031-0.36719-0.5625-0.96094-0.84375-1.7812-0.84375-1.0625 0-1.8867 0.44531-2.4688 1.3281-0.58594 0.875-0.88672 2.1406-0.90625 3.7969v8.6406h-5.6562v-9.1719c0-1.9453-0.16797-3.1953-0.5-3.75-0.33594-0.5625-0.92969-0.84375-1.7812-0.84375-1.0859 0-1.918 0.44531-2.5 1.3281-0.58594 0.88672-0.875 2.1484-0.875 3.7812v8.6562h-5.6562v-17.578h5.6562v2.5625c0.6875-0.98828 1.4766-1.7344 2.375-2.2344 0.89453-0.50781 1.8789-0.76562 2.9531-0.76562 1.2188 0 2.2891 0.29688 3.2188 0.89062 0.9375 0.58594 1.6445 1.4023 2.125 2.4531z"/>
  </symbol>
  <symbol id="q" overflow="visible">
   <path d="m2.9531-23.438h6.75l8.5312 16.078v-16.078h5.7188v23.438h-6.75l-8.5156-16.078v16.078h-5.7344z"/>
  </symbol>
  <symbol id="p" overflow="visible">
   <path d="m20.375-10.703v10.703h-5.6406v-8.2031c0-1.5078-0.039063-2.5508-0.10938-3.125-0.0625-0.58203-0.18359-1.0078-0.35938-1.2812-0.21875-0.36328-0.51562-0.64453-0.89062-0.84375-0.375-0.20703-0.80469-0.3125-1.2812-0.3125-1.1797 0-2.1016 0.45312-2.7656 1.3594-0.66797 0.90625-1 2.1562-1 3.75v8.6562h-5.625v-17.578h5.625v2.5625c0.84375-1.0195 1.7383-1.7734 2.6875-2.2656 0.95703-0.48828 2.0078-0.73438 3.1562-0.73438 2.0312 0 3.5703 0.625 4.625 1.875 1.0508 1.25 1.5781 3.0625 1.5781 5.4375z"/>
  </symbol>
  <symbol id="o" overflow="visible">
   <path d="m2.9531-23.438h10.031c2.9766 0 5.2656 0.66406 6.8594 1.9844 1.6016 1.3242 2.4062 3.2109 2.4062 5.6562 0 2.4609-0.80469 4.3516-2.4062 5.6719-1.5938 1.3242-3.8828 1.9844-6.8594 1.9844h-3.9844v8.1406h-6.0469zm6.0469 4.375v6.5469h3.3438c1.1641 0 2.0664-0.28125 2.7031-0.84375 0.64453-0.57031 0.96875-1.3828 0.96875-2.4375 0-1.0391-0.32422-1.8438-0.96875-2.4062-0.63672-0.57031-1.5391-0.85938-2.7031-0.85938z"/>
  </symbol>
  <symbol id="n" overflow="visible">
   <path d="m2.7031-17.578h5.625v17.266c0 2.3516-0.57031 4.1484-1.7031 5.3906-1.125 1.2383-2.7617 1.8594-4.9062 1.8594h-2.7812v-3.6875h0.96875c1.0625 0 1.7891-0.24219 2.1875-0.71875 0.40625-0.48047 0.60938-1.4297 0.60938-2.8438zm0-6.8594h5.625v4.5938h-5.625z"/>
  </symbol>
  <symbol id="m" overflow="visible">
   <path d="m16.906-17.031v4.5781c-0.76172-0.51953-1.5273-0.90625-2.2969-1.1562-0.77344-0.25-1.5703-0.375-2.3906-0.375-1.5742 0-2.7969 0.46094-3.6719 1.375-0.875 0.91797-1.3125 2.1953-1.3125 3.8281 0 1.6484 0.4375 2.9297 1.3125 3.8438 0.875 0.91797 2.0977 1.375 3.6719 1.375 0.875 0 1.707-0.12891 2.5-0.39062 0.78906-0.25781 1.5195-0.64844 2.1875-1.1719v4.6094c-0.875 0.32422-1.7656 0.5625-2.6719 0.71875-0.90625 0.16406-1.8125 0.25-2.7188 0.25-3.1797 0-5.6641-0.8125-7.4531-2.4375-1.793-1.625-2.6875-3.8906-2.6875-6.7969 0-2.8945 0.89453-5.1562 2.6875-6.7812 1.7891-1.6328 4.2734-2.4531 7.4531-2.4531 0.91406 0 1.8203 0.085937 2.7188 0.25 0.89453 0.16797 1.7852 0.41406 2.6719 0.73438z"/>
  </symbol>
 </defs>
 <g>
  <path d="m339.31 167.23c-0.24609 1.0195-0.8125 1.9297-1.6172 2.6016-0.042968 0.042969-0.13281 0.089844-0.17969 0.13281v0.003906c-0.875 0.74219-1.9883 1.1562-3.1367 1.1641-1.1641-0.023437-2.2812-0.43359-3.1836-1.1641-0.046874-0.046875-0.13281-0.089844-0.17969-0.13281v-0.003907c-0.97656-0.84375-1.5859-2.0312-1.707-3.3164-0.035156-0.17969-0.050782-0.35938-0.042969-0.53906v-10.809c-0.007813-0.18359 0.007813-0.36328 0.042969-0.53906 0.10156-1.2344 0.66016-2.3906 1.5703-3.2305l0.13281-0.13281h0.003906c0.93359-0.80859 2.1289-1.2539 3.3633-1.2578 1.2227-0.007812 2.4062 0.44141 3.3164 1.2578l0.13281 0.13281h0.003906c0.74219 0.64453 1.2578 1.5078 1.4805 2.4688 0.12891 0.42187 0.1875 0.85937 0.17969 1.3008v0.49219h33.414c6.6016 0 12.703-3.5234 16.004-9.2383 3.3008-5.7188 3.3008-12.762 0-18.48-3.3008-5.7188-9.4023-9.2383-16.004-9.2383h-18.164c-7.6289-0.03125-14.934-3.0742-20.328-8.4688-5.3945-5.3945-8.4375-12.699-8.4688-20.328 0-7.6406 3.0312-14.969 8.4297-20.375 5.4023-5.4102 12.727-8.4531 20.367-8.4648h3.9219v-15.312c0-2.8516 2.3086-5.1602 5.1602-5.1602 2.8477 0 5.1602 2.3086 5.1602 5.1602v15.312h19.395v-0.26562c-0.007812-0.16797 0.007813-0.33203 0.046875-0.49609 0.10547-1.3008 0.71875-2.5078 1.7031-3.3633 0.93359-0.80469 2.1289-1.25 3.3633-1.2539 1.2227-0.011719 2.4062 0.4375 3.3203 1.2539 1.1406 0.95703 1.7969 2.3711 1.793 3.8594v10.855-0.003906c0.003906 1.4883-0.65234 2.9023-1.793 3.8594-0.91406 0.81641-2.0977 1.2617-3.3203 1.2539-1.2344-0.003906-2.4297-0.44922-3.3633-1.2539-0.97656-0.84766-1.5859-2.0352-1.7031-3.3203-0.039062-0.17578-0.054687-0.35938-0.046875-0.53906v-0.26953h-33.637c-6.6016 0.011719-12.695 3.543-15.996 9.2617-3.2969 5.7188-3.2969 12.762 0 18.48 3.3008 5.7188 9.3945 9.25 15.996 9.2617h18.164c10.285 0 19.793 5.4883 24.938 14.398 5.1406 8.9062 5.1406 19.883 0 28.793-5.1445 8.9102-14.652 14.398-24.938 14.398h-3.9219v15.066c0 2.8516-2.3125 5.1602-5.1602 5.1602-2.8477 0-5.1602-2.3086-5.1602-5.1602v-15.066h-19.172c0.007812 0.42578-0.050782 0.84766-0.17969 1.2539z"/>
  <path d="m503.28 545.04h-27.52l3.8906-35.668 1.6445-14.73 1.793-16.078 1.5703-14.73 6.1289-55.926 0.003907 0.003906c10.191-2.2812 18.598-9.457 22.441-19.172 3.8398-9.7109 2.625-20.699-3.25-29.336s-15.648-13.801-26.094-13.793h-112.59v-119.11h0.039063v-0.003906c39.551-2.6055 74.875-25.672 93.176-60.832 18.297-35.164 16.914-77.328-3.6484-111.22-20.562-33.891-57.32-54.59-96.961-54.602s-76.41 20.668-96.992 54.547c-20.582 33.875-21.988 76.039-3.7109 111.21 18.277 35.172 53.59 58.258 93.141 60.887v67.332l-4.3359-1.7617c-0.53125-5.125-1.918-12.648-4.0469-24.121-0.37891-2.082-0.66406-3.582-0.73828-4.0938-2.1094-13.977-12.641-24.633-28.902-29.223l-3.6016-1.0195h0.003906c-3.5078-1.5039-6.5664-3.8945-8.875-6.9336-4.8281-6.3047-11.859-10.555-19.684-11.898-3.4805-0.26563-6.9766 0.089843-10.328 1.0469-1.8164 0.62109-3.75 0.83984-5.6602 0.64063-1.7422-0.65625-3.4336-1.4453-5.0508-2.3672-3.3945-1.9766-7.0703-3.4219-10.902-4.2812-1.9141-0.375-3.832-0.66016-5.7617-0.94141v-0.003906c-3.2148-0.33984-6.3867-1.0156-9.457-2.0234-4.4375-2.0508-9.6328-1.5547-13.605 1.293-3.9297 3.2188-5.8164 8.3086-4.9375 13.316 0.21875 2.2305 0.24219 4.6758 0.27734 7.1602v-0.003906c-0.11328 4.8945 0.32812 9.7891 1.3242 14.582 2.0625 6.3906 5.2031 12.379 9.2812 17.715 1 1.4805 1.9727 2.9062 2.8242 4.2695 5.0625 8.3086 10.965 16.078 17.621 23.176 14.914 15.629 35.621 24.41 57.223 24.262 12.211-0.12109 24.277-2.6523 35.508-7.4492l11.824 4.8047v35.645h-112.59c-10.578-0.011719-20.461 5.2891-26.309 14.109-5.8438 8.8164-6.8789 19.98-2.75 29.723 4.1328 9.7422 12.875 16.766 23.277 18.695l13.98 136.46 0.074219 0.44922-27.441-0.003906c-4.1289 0-7.4766 3.3516-7.4766 7.4805 0 4.1289 3.3477 7.4766 7.4766 7.4766h118.67c4.1328 0 7.4805-3.3477 7.4805-7.4766 0-4.1289-3.3477-7.4805-7.4805-7.4805h-76.121l-13.984-136.32h222.49l-2.8672 26.172h-68.871c-1.9609-0.007813-3.8438 0.76172-5.2305 2.1445-1.3906 1.3828-2.1719 3.2617-2.1719 5.2227 0 1.957 0.78125 3.8398 2.1719 5.2188 1.3867 1.3828 3.2695 2.1562 5.2305 2.1445h67.301l-1.5703 14.207-48.156 0.003906c-4.0586 0.015625-7.3359 3.3086-7.3359 7.3633s3.2773 7.3477 7.3359 7.3672h46.512l-1.4961 14.133h-21.91c-1.9609-0.011719-3.8438 0.75781-5.2344 2.1406-1.3867 1.3828-2.168 3.2617-2.168 5.2227 0 1.9609 0.78125 3.8398 2.168 5.2227 1.3906 1.3828 3.2734 2.1523 5.2344 2.1445h20.266l-0.22266 1.9453-3.8867 35.668-12.793-0.003906c-4.1289 0-7.4766 3.3516-7.4766 7.4805 0 4.1289 3.3477 7.4766 7.4766 7.4766h55.336c4.1289 0 7.4766-3.3477 7.4766-7.4766 0-4.1289-3.3477-7.4805-7.4766-7.4805zm-240.71-267.06c-5.9414-6.3672-11.215-13.324-15.734-20.77-0.94141-1.4961-2.0078-3.0742-3.1094-4.707h-0.003906c-3.0234-3.9375-5.4336-8.3047-7.1562-12.961-0.67188-3.6758-0.96484-7.4141-0.86719-11.152-0.035156-2.3906-0.074218-4.75-0.22656-6.957v0.003906c3.543 1.0469 7.168 1.793 10.836 2.2266 1.6719 0.24609 3.3516 0.48438 5.0078 0.8125h0.003906c2.3906 0.60156 4.6836 1.5547 6.7969 2.8281 2.3203 1.2969 4.7422 2.4023 7.2461 3.3047 4.543 1.2891 9.3672 1.2109 13.867-0.22656 1.6836-0.51562 3.4375-0.76953 5.1992-0.76172 3.9414 0.46484 6.4492 2.9414 10.523 7.2852h-0.003907c4.0625 5.0938 9.4883 8.9336 15.645 11.066l2.207 0.625 1.4688 0.41797c6.082 1.7188 16.539 6.2227 18.168 17.059 0.085937 0.57812 0.40234 2.2617 0.83203 4.5898 1.875 10.148 3.1094 17.359 3.6797 21.551l-0.003906-0.003906c-12.383 5.4102-26.117 6.9492-39.391 4.4062-13.273-2.5391-25.469-9.0352-34.984-18.637zm2.8125-164.62v-0.003906c0.007813-25.672 10.043-50.328 27.969-68.707 17.926-18.379 42.32-29.027 67.984-29.68 25.664-0.64844 50.57 8.7539 69.402 26.203 18.828 17.449 30.098 41.566 31.406 67.207 1.3047 25.641-7.4609 50.773-24.422 70.047-16.961 19.27-40.781 31.152-66.379 33.113h-0.039063c-2.4609 0.22266-4.9219 0.29688-7.457 0.29688s-4.9961-0.074219-7.457-0.29688h-0.003907c-24.742-1.9102-47.852-13.078-64.719-31.277-16.871-18.199-26.254-42.09-26.285-66.906zm-21.621 282.5c-6.6758 0-12.848-3.5625-16.188-9.3477-3.3398-5.7812-3.3398-12.91 0-18.691 3.3398-5.7852 9.5117-9.3477 16.188-9.3477h112.59v0.14844h14.957v-0.15234l112.59 0.003906c6.6797 0 12.852 3.5625 16.191 9.3477 3.3398 5.7812 3.3398 12.906 0 18.691-3.3398 5.7852-9.5117 9.3477-16.191 9.3477z"/>
  <path d="m373.29 545.04h43.621c4.1289 0 7.4766 4.1289 7.4766 7.4766 0 4.1289-3.3477 7.4766-7.4766 7.4766h-43.621c-4.1289 0-7.4766-4.1289-7.4766-7.4766 0-4.1289 3.3477-7.4766 7.4766-7.4766z"/>
  <path d="m505.58 221.75h-3.4844v-3.4805c0-3.5547-2.8789-6.4336-6.4297-6.4336-3.5508 0-6.4297 2.8789-6.4297 6.4336v3.4844l-3.4844-0.003906c-3.5547 0-6.4336 2.8828-6.4336 6.4336s2.8789 6.4297 6.4336 6.4297h3.4844v3.4844c0 3.5508 2.8789 6.4297 6.4297 6.4297 3.5508 0 6.4297-2.8789 6.4297-6.4297v-3.4844h3.4844c3.5547 0 6.4336-2.8789 6.4336-6.4297s-2.8789-6.4336-6.4336-6.4336z"/>
  <path d="m210.82 120.08h-3.4844v-3.4844c0-3.5508-2.8789-6.4336-6.4297-6.4336-3.5508 0-6.4297 2.8828-6.4297 6.4336v3.4844h-3.4844c-3.5547 0-6.4336 2.8789-6.4336 6.4297 0 3.5508 2.8789 6.4297 6.4336 6.4297h3.4844v3.4844c0 3.5547 2.8789 6.4336 6.4297 6.4336 3.5508 0 6.4297-2.8789 6.4297-6.4336v-3.4844h3.4844c3.5508 0 6.4336-2.8789 6.4336-6.4297 0-3.5508-2.8828-6.4297-6.4336-6.4297z"/>
  <path d="m238.95 299.34h-3.4844v-3.4844 0.003906c0-3.5547-2.8789-6.4336-6.4297-6.4336-3.5547 0-6.4336 2.8789-6.4336 6.4336v3.4844l-3.4844-0.003906c-3.5508 0-6.4297 2.8828-6.4297 6.4336 0 3.5508 2.8789 6.4297 6.4297 6.4297h3.4844v3.4844c0 3.5508 2.8789 6.4297 6.4336 6.4297 3.5508 0 6.4297-2.8789 6.4297-6.4297v-3.4844h3.4844c3.5508 0 6.4297-2.8789 6.4297-6.4297 0-3.5508-2.8789-6.4336-6.4297-6.4336z"/>
  <use x="184.554688" y="656.46875" xlink:href="#h"/>
  <use x="208.152344" y="656.46875" xlink:href="#b"/>
  <use x="224.011719" y="656.46875" xlink:href="#a"/>
  <use x="245.820313" y="656.46875" xlink:href="#e"/>
  <use x="267.519531" y="656.46875" xlink:href="#d"/>
  <use x="282.890625" y="656.46875" xlink:href="#a"/>
  <use x="304.699219" y="656.46875" xlink:href="#l"/>
  <use x="338.914062" y="656.46875" xlink:href="#k"/>
  <use x="361.929688" y="656.46875" xlink:href="#j"/>
  <use x="394.085938" y="656.46875" xlink:href="#i"/>
  <use x="414.574219" y="656.46875" xlink:href="#g"/>
  <use x="437.46875" y="656.46875" xlink:href="#w"/>
  <use x="448.492187" y="656.46875" xlink:href="#v"/>
  <use x="478.402344" y="656.46875" xlink:href="#h"/>
  <use x="502" y="656.46875" xlink:href="#e"/>
  <use x="523.699219" y="656.46875" xlink:href="#b"/>
  <use x="539.554688" y="656.46875" xlink:href="#u"/>
  <use x="560.515625" y="656.46875" xlink:href="#e"/>
  <use x="582.214844" y="656.46875" xlink:href="#t"/>
  <use x="593.238281" y="656.46875" xlink:href="#f"/>
  <use x="616.128906" y="656.46875" xlink:href="#c"/>
  <use x="184.554688" y="688.625" xlink:href="#s"/>
  <use x="198.546875" y="688.625" xlink:href="#b"/>
  <use x="214.402344" y="688.625" xlink:href="#c"/>
  <use x="236.496094" y="688.625" xlink:href="#r"/>
  <use x="281.195312" y="688.625" xlink:href="#d"/>
  <use x="296.566406" y="688.625" xlink:href="#f"/>
  <use x="319.460938" y="688.625" xlink:href="#a"/>
  <use x="352.460938" y="688.625" xlink:href="#q"/>
  <use x="379.375" y="688.625" xlink:href="#c"/>
  <use x="401.464844" y="688.625" xlink:href="#g"/>
  <use x="424.359375" y="688.625" xlink:href="#p"/>
  <use x="458.445313" y="688.625" xlink:href="#o"/>
  <use x="482.011719" y="688.625" xlink:href="#b"/>
  <use x="497.871094" y="688.625" xlink:href="#c"/>
  <use x="519.960938" y="688.625" xlink:href="#n"/>
  <use x="530.984375" y="688.625" xlink:href="#a"/>
  <use x="552.792969" y="688.625" xlink:href="#m"/>
  <use x="571.855469" y="688.625" xlink:href="#d"/>
 </g>
</svg>
