<?xml version="1.0" encoding="UTF-8"?>
<svg width="700pt" height="700pt" version="1.1" viewBox="0 0 700 700" xmlns="http://www.w3.org/2000/svg">
 <g>
  <path d="m210 420c-13.926 0-27.277 5.5312-37.125 15.375-9.8438 9.8477-15.375 23.199-15.375 37.125s5.5312 27.277 15.375 37.125c9.8477 9.8438 23.199 15.375 37.125 15.375s27.277-5.5312 37.125-15.375c9.8438-9.8477 15.375-23.199 15.375-37.125s-5.5312-27.277-15.375-37.125c-9.8477-9.8438-23.199-15.375-37.125-15.375zm0 70c-4.6406 0-9.0938-1.8438-12.375-5.125s-5.125-7.7344-5.125-12.375 1.8438-9.0938 5.125-12.375 7.7344-5.125 12.375-5.125 9.0938 1.8438 12.375 5.125 5.125 7.7344 5.125 12.375-1.8438 9.0938-5.125 12.375-7.7344 5.125-12.375 5.125z"/>
  <path d="m402.5 420c-13.926 0-27.277 5.5312-37.125 15.375-9.8438 9.8477-15.375 23.199-15.375 37.125s5.5312 27.277 15.375 37.125c9.8477 9.8438 23.199 15.375 37.125 15.375s27.277-5.5312 37.125-15.375c9.8438-9.8477 15.375-23.199 15.375-37.125s-5.5312-27.277-15.375-37.125c-9.8477-9.8438-23.199-15.375-37.125-15.375zm0 70c-4.6406 0-9.0938-1.8438-12.375-5.125s-5.125-7.7344-5.125-12.375 1.8438-9.0938 5.125-12.375 7.7344-5.125 12.375-5.125 9.0938 1.8438 12.375 5.125 5.125 7.7344 5.125 12.375-1.8438 9.0938-5.125 12.375-7.7344 5.125-12.375 5.125z"/>
  <path d="m577.5 35h-70c-4.0703-0.089844-8.043 1.2422-11.238 3.7656-3.1914 2.5195-5.4062 6.0781-6.2617 10.059l-52.5 248.68h-265.48l-32.023-178.15c-1.125-6.2539-5.5-11.43-11.477-13.582-5.9805-2.1523-12.648-0.94922-17.5 3.1484-4.8516 4.1016-7.1484 10.48-6.0234 16.73l35 192.5c0.74609 4.0781 2.9141 7.7578 6.1172 10.387 3.207 2.6289 7.2383 4.0312 11.383 3.9648h273.18l-7.3516 35h-265.82c-6.2539 0-12.031 3.3359-15.156 8.75s-3.125 12.086 0 17.5 8.9023 8.75 15.156 8.75h280c4.0703 0.089844 8.043-1.2422 11.238-3.7656 3.1914-2.5195 5.4062-6.0781 6.2617-10.059l66.676-318.68h55.824c6.2539 0 12.031-3.3359 15.156-8.75s3.125-12.086 0-17.5-8.9023-8.75-15.156-8.75z"/>
  <path d="m297.5 35c-4.6406 0-9.0938 1.8438-12.375 5.125s-5.125 7.7344-5.125 12.375v150.32l-40.074-40.25c-4.5078-3.8555-10.66-5.1719-16.348-3.4883-5.6875 1.6797-10.137 6.1289-11.816 11.816-1.6836 5.6914-0.37109 11.844 3.4883 16.348l70 70c3.2852 3.3125 7.7578 5.1758 12.426 5.1758 4.6641 0 9.1367-1.8633 12.426-5.1758l70-70c3.8555-4.5039 5.1719-10.656 3.4883-16.348-1.6836-5.6875-6.1328-10.137-11.82-11.816-5.6875-1.6836-11.84-0.36719-16.344 3.4883l-40.426 40.25v-150.32c0-4.6406-1.8438-9.0938-5.125-12.375s-7.7344-5.125-12.375-5.125z"/>
 </g>
</svg>
