<?xml version="1.0" encoding="UTF-8"?>
<svg width="700pt" height="700pt" version="1.1" viewBox="0 0 700 700" xmlns="http://www.w3.org/2000/svg" xmlns:xlink="http://www.w3.org/1999/xlink">
 <defs>
  <symbol id="s" overflow="visible">
   <path d="m3.75-0.21875c-0.19922 0.09375-0.40234 0.16797-0.60938 0.21875-0.21094 0.050781-0.42969 0.078125-0.65625 0.078125-0.67969 0-1.2148-0.1875-1.6094-0.5625-0.39844-0.38281-0.59375-0.89844-0.59375-1.5469 0-0.65625 0.19531-1.1719 0.59375-1.5469 0.39453-0.38281 0.92969-0.57812 1.6094-0.57812 0.22656 0 0.44531 0.027344 0.65625 0.078125 0.20703 0.054687 0.41016 0.13281 0.60938 0.23438v0.84375c-0.19922-0.13281-0.39062-0.23438-0.57812-0.29688s-0.38672-0.09375-0.59375-0.09375c-0.375 0-0.67188 0.12109-0.89062 0.35938-0.21875 0.24219-0.32812 0.57422-0.32812 1 0 0.41797 0.10938 0.74609 0.32812 0.98438 0.21875 0.24219 0.51562 0.35938 0.89062 0.35938 0.20703 0 0.40625-0.03125 0.59375-0.09375s0.37891-0.15625 0.57812-0.28125z"/>
  </symbol>
  <symbol id="c" overflow="visible">
   <path d="m2.75-2.2188c-0.09375-0.039062-0.18359-0.070312-0.26562-0.09375-0.085937-0.019531-0.16797-0.03125-0.25-0.03125-0.25 0-0.44531 0.085938-0.57812 0.25-0.13672 0.15625-0.20312 0.38672-0.20312 0.6875v1.4062h-0.98438v-3.0625h0.98438v0.5c0.125-0.19531 0.26562-0.34375 0.42188-0.4375 0.16406-0.09375 0.36328-0.14062 0.59375-0.14062 0.03125 0 0.0625 0.007813 0.09375 0.015625 0.039062 0 0.097656 0.007812 0.17188 0.015625z"/>
  </symbol>
  <symbol id="a" overflow="visible">
   <path d="m3.5156-1.5312v0.26562h-2.2812c0.019531 0.23047 0.10156 0.40234 0.25 0.51562 0.14453 0.11719 0.34375 0.17188 0.59375 0.17188 0.20703 0 0.41406-0.023437 0.625-0.078125 0.21875-0.0625 0.44141-0.15625 0.67188-0.28125v0.75c-0.23047 0.09375-0.46094 0.16406-0.6875 0.20312-0.23047 0.039062-0.46484 0.0625-0.70312 0.0625-0.55469 0-0.98438-0.14062-1.2969-0.42188-0.30469-0.28125-0.45312-0.67578-0.45312-1.1875 0-0.5 0.14844-0.89062 0.45312-1.1719 0.30078-0.28906 0.71875-0.4375 1.25-0.4375 0.47656 0 0.85938 0.14844 1.1406 0.4375 0.28906 0.29297 0.4375 0.68359 0.4375 1.1719zm-1-0.32812c0-0.1875-0.058594-0.33594-0.17188-0.45312-0.10547-0.11328-0.24219-0.17188-0.40625-0.17188-0.19922 0-0.35547 0.058594-0.46875 0.17188-0.11719 0.10547-0.1875 0.25781-0.21875 0.45312z"/>
  </symbol>
  <symbol id="g" overflow="visible">
   <path d="m1.8438-1.375c-0.21094 0-0.36719 0.039062-0.46875 0.10938-0.10547 0.0625-0.15625 0.16406-0.15625 0.29688 0 0.125 0.039062 0.22656 0.125 0.29688 0.082031 0.0625 0.20312 0.09375 0.35938 0.09375 0.17578 0 0.32812-0.0625 0.45312-0.1875 0.125-0.13281 0.1875-0.30078 0.1875-0.5v-0.10938zm1.4844-0.375v1.75h-0.98438v-0.45312c-0.125 0.1875-0.27344 0.32422-0.4375 0.40625-0.16797 0.082031-0.36719 0.125-0.59375 0.125-0.32422 0-0.58594-0.085938-0.78125-0.26562-0.19922-0.1875-0.29688-0.42969-0.29688-0.73438 0-0.35156 0.125-0.61328 0.375-0.78125 0.25-0.16406 0.63281-0.25 1.1562-0.25h0.57812v-0.078125c0-0.15625-0.0625-0.26953-0.1875-0.34375-0.11719-0.070312-0.30469-0.10938-0.5625-0.10938-0.21094 0-0.40625 0.023437-0.59375 0.0625-0.17969 0.042969-0.33984 0.10547-0.48438 0.1875v-0.75c0.20703-0.039063 0.41406-0.078125 0.625-0.10938 0.20703-0.03125 0.41406-0.046875 0.625-0.046875 0.55078 0 0.94531 0.10938 1.1875 0.32812 0.25 0.21875 0.375 0.57422 0.375 1.0625z"/>
  </symbol>
  <symbol id="b" overflow="visible">
   <path d="m1.5312-3.9219v0.85938h1.0156v0.70312h-1.0156v1.2969c0 0.14844 0.023438 0.24609 0.078125 0.29688 0.0625 0.042969 0.17578 0.0625 0.34375 0.0625h0.5v0.70312h-0.82812c-0.38672 0-0.66406-0.078125-0.82812-0.23438-0.15625-0.16406-0.23438-0.44141-0.23438-0.82812v-1.2969h-0.48438v-0.70312h0.48438v-0.85938z"/>
  </symbol>
  <symbol id="k" overflow="visible">
   <path d="m2.5469-2.6094v-1.6406h0.98438v4.25h-0.98438v-0.4375c-0.13672 0.17969-0.28906 0.30859-0.45312 0.39062-0.15625 0.082031-0.33984 0.125-0.54688 0.125-0.375 0-0.6875-0.14453-0.9375-0.4375-0.24219-0.30078-0.35938-0.69141-0.35938-1.1719 0-0.46875 0.11719-0.85156 0.35938-1.1562 0.25-0.30078 0.5625-0.45312 0.9375-0.45312 0.20703 0 0.39062 0.046875 0.54688 0.14062 0.16406 0.085938 0.31641 0.21484 0.45312 0.39062zm-0.64062 1.9844c0.20703 0 0.36328-0.078125 0.46875-0.23438 0.11328-0.15625 0.17188-0.37891 0.17188-0.67188 0-0.28906-0.058594-0.50781-0.17188-0.65625-0.10547-0.15625-0.26172-0.23438-0.46875-0.23438-0.21094 0-0.37109 0.078125-0.48438 0.23438-0.10547 0.14844-0.15625 0.36719-0.15625 0.65625 0 0.29297 0.050781 0.51562 0.15625 0.67188 0.11328 0.15625 0.27344 0.23438 0.48438 0.23438z"/>
  </symbol>
  <symbol id="j" overflow="visible">
   <path d="m2.0938-0.625c0.20703 0 0.36719-0.078125 0.48438-0.23438 0.11328-0.15625 0.17188-0.37891 0.17188-0.67188 0-0.28906-0.058594-0.50781-0.17188-0.65625-0.11719-0.15625-0.27734-0.23438-0.48438-0.23438-0.21094 0-0.37109 0.078125-0.48438 0.23438-0.10547 0.14844-0.15625 0.36719-0.15625 0.65625 0 0.29297 0.050781 0.51562 0.15625 0.67188 0.11328 0.15625 0.27344 0.23438 0.48438 0.23438zm-0.64062-1.9844c0.13281-0.17578 0.28125-0.30469 0.4375-0.39062 0.16406-0.09375 0.35156-0.14062 0.5625-0.14062 0.38281 0 0.69531 0.15234 0.9375 0.45312 0.23828 0.30469 0.35938 0.6875 0.35938 1.1562 0 0.48047-0.12109 0.87109-0.35938 1.1719-0.24219 0.29297-0.55469 0.4375-0.9375 0.4375-0.21094 0-0.39844-0.042969-0.5625-0.125-0.15625-0.082031-0.30469-0.21094-0.4375-0.39062v0.4375h-0.98438v-4.25h0.98438z"/>
  </symbol>
  <symbol id="f" overflow="visible">
   <path d="m0.0625-3.0625h0.98438l0.82812 2.0781 0.6875-2.0781h0.98438l-1.2812 3.3594c-0.13672 0.33203-0.29297 0.56641-0.46875 0.70312-0.16797 0.13281-0.39062 0.20312-0.67188 0.20312h-0.5625v-0.64062h0.29688c0.16406 0 0.28516-0.027344 0.35938-0.078125 0.082031-0.054687 0.14453-0.14844 0.1875-0.28125l0.03125-0.078125z"/>
  </symbol>
  <symbol id="e" overflow="visible">
   <path d="m2.4844-4.25v0.64062h-0.54688c-0.13672 0-0.23047 0.027344-0.28125 0.078125-0.054688 0.054688-0.078125 0.14062-0.078125 0.26562v0.20312h0.82812v0.70312h-0.82812v2.3594h-0.98438v-2.3594h-0.48438v-0.70312h0.48438v-0.20312c0-0.33203 0.09375-0.57812 0.28125-0.73438 0.1875-0.16406 0.47266-0.25 0.85938-0.25z"/>
  </symbol>
  <symbol id="i" overflow="visible">
   <path d="m0.46875-3.0625h0.98438v3.0625h-0.98438zm0-1.1875h0.98438v0.79688h-0.98438z"/>
  </symbol>
  <symbol id="h" overflow="visible">
   <path d="m3.5469-1.8594v1.8594h-0.98438v-1.4219c0-0.26953-0.007812-0.45312-0.015625-0.54688-0.011719-0.10156-0.03125-0.17578-0.0625-0.21875-0.042969-0.0625-0.09375-0.10938-0.15625-0.14062-0.0625-0.039063-0.13672-0.0625-0.21875-0.0625-0.21094 0-0.37109 0.078125-0.48438 0.23438-0.11719 0.15625-0.17188 0.375-0.17188 0.65625v1.5h-0.98438v-4.25h0.98438v1.6406c0.14453-0.17578 0.30078-0.30469 0.46875-0.39062 0.16406-0.09375 0.34766-0.14062 0.54688-0.14062 0.35156 0 0.61719 0.10938 0.79688 0.32812 0.1875 0.21875 0.28125 0.53906 0.28125 0.95312z"/>
  </symbol>
  <symbol id="d" overflow="visible">
   <path d="m1.9219-2.4375c-0.21875 0-0.38672 0.078125-0.5 0.23438-0.10547 0.15625-0.15625 0.38281-0.15625 0.67188 0 0.29297 0.050781 0.51562 0.15625 0.67188 0.11328 0.15625 0.28125 0.23438 0.5 0.23438s0.37891-0.078125 0.48438-0.23438c0.11328-0.15625 0.17188-0.37891 0.17188-0.67188 0-0.28906-0.058594-0.51562-0.17188-0.67188-0.10547-0.15625-0.26562-0.23438-0.48438-0.23438zm0-0.70312c0.53125 0 0.94141 0.14844 1.2344 0.4375 0.30078 0.28125 0.45312 0.67188 0.45312 1.1719 0 0.51172-0.15234 0.90625-0.45312 1.1875-0.29297 0.28125-0.70312 0.42188-1.2344 0.42188-0.52344 0-0.93359-0.14062-1.2344-0.42188-0.30469-0.28125-0.45312-0.67578-0.45312-1.1875 0-0.5 0.14844-0.89062 0.45312-1.1719 0.30078-0.28906 0.71094-0.4375 1.2344-0.4375z"/>
  </symbol>
  <symbol id="r" overflow="visible">
   <path d="m3.3125-2.5469c0.11328-0.1875 0.25391-0.33203 0.42188-0.4375 0.17578-0.10156 0.36719-0.15625 0.57812-0.15625 0.34375 0 0.60938 0.10938 0.79688 0.32812s0.28125 0.53906 0.28125 0.95312v1.8594h-0.98438v-1.5938-0.0625-0.125c0-0.21875-0.03125-0.375-0.09375-0.46875s-0.16797-0.14062-0.3125-0.14062c-0.1875 0-0.33594 0.078125-0.4375 0.23438-0.09375 0.14844-0.14062 0.36719-0.14062 0.65625v1.5h-0.98438v-1.5938c0-0.34375-0.03125-0.5625-0.09375-0.65625-0.054688-0.09375-0.15625-0.14062-0.3125-0.14062-0.1875 0-0.33594 0.078125-0.4375 0.23438-0.09375 0.14844-0.14062 0.36719-0.14062 0.65625v1.5h-0.98438v-3.0625h0.98438v0.45312c0.11328-0.17578 0.25-0.30469 0.40625-0.39062 0.15625-0.09375 0.32812-0.14062 0.51562-0.14062 0.20703 0 0.39062 0.054687 0.54688 0.15625 0.16406 0.10547 0.29688 0.25 0.39062 0.4375z"/>
  </symbol>
  <symbol id="q" overflow="visible">
   <path d="m0.51562-4.0781h1.1719l1.4844 2.7969v-2.7969h1v4.0781h-1.1719l-1.4844-2.7969v2.7969h-1z"/>
  </symbol>
  <symbol id="p" overflow="visible">
   <path d="m0.4375-1.1875v-1.875h0.98438v0.3125 0.625 0.5c0 0.24219 0.003906 0.41797 0.015625 0.53125 0.007812 0.10547 0.03125 0.18359 0.0625 0.23438 0.039062 0.0625 0.09375 0.11719 0.15625 0.15625 0.0625 0.03125 0.13281 0.046875 0.21875 0.046875 0.20703 0 0.36719-0.078125 0.48438-0.23438 0.11328-0.15625 0.17188-0.375 0.17188-0.65625v-1.5156h0.98438v3.0625h-0.98438v-0.4375c-0.14844 0.17969-0.30469 0.30859-0.46875 0.39062-0.16797 0.082031-0.35156 0.125-0.54688 0.125-0.35547 0-0.625-0.10938-0.8125-0.32812-0.17969-0.21875-0.26562-0.53125-0.26562-0.9375z"/>
  </symbol>
  <symbol id="o" overflow="visible">
   <path d="m3.5469-1.8594v1.8594h-0.98438v-1.4219c0-0.26953-0.007812-0.45312-0.015625-0.54688-0.011719-0.10156-0.03125-0.17578-0.0625-0.21875-0.042969-0.0625-0.09375-0.10938-0.15625-0.14062-0.0625-0.039063-0.13672-0.0625-0.21875-0.0625-0.21094 0-0.37109 0.078125-0.48438 0.23438-0.11719 0.15625-0.17188 0.375-0.17188 0.65625v1.5h-0.98438v-3.0625h0.98438v0.45312c0.14453-0.17578 0.30078-0.30469 0.46875-0.39062 0.16406-0.09375 0.34766-0.14062 0.54688-0.14062 0.35156 0 0.61719 0.10938 0.79688 0.32812 0.1875 0.21875 0.28125 0.53906 0.28125 0.95312z"/>
  </symbol>
  <symbol id="n" overflow="visible">
   <path d="m0.51562-4.0781h1.75c0.50781 0 0.90625 0.11719 1.1875 0.34375 0.28125 0.23047 0.42188 0.55859 0.42188 0.98438 0 0.42969-0.14062 0.75781-0.42188 0.98438-0.28125 0.23047-0.67969 0.34375-1.1875 0.34375h-0.70312v1.4219h-1.0469zm1.0469 0.76562v1.1406h0.57812c0.20703 0 0.36328-0.046875 0.46875-0.14062 0.11328-0.10156 0.17188-0.25 0.17188-0.4375 0-0.17578-0.058594-0.3125-0.17188-0.40625-0.10547-0.10156-0.26172-0.15625-0.46875-0.15625z"/>
  </symbol>
  <symbol id="m" overflow="visible">
   <path d="m0.46875-3.0625h0.98438v3.0156c0 0.40625-0.10156 0.71094-0.29688 0.92188-0.19922 0.21875-0.48438 0.32812-0.85938 0.32812h-0.48438v-0.64062h0.17188c0.1875 0 0.3125-0.042969 0.375-0.125 0.070313-0.085938 0.10938-0.24609 0.10938-0.48438zm0-1.1875h0.98438v0.79688h-0.98438z"/>
  </symbol>
  <symbol id="l" overflow="visible">
   <path d="m2.9375-2.9688v0.79688c-0.125-0.082031-0.25781-0.14453-0.39062-0.1875-0.13672-0.050781-0.27734-0.078125-0.42188-0.078125-0.27344 0-0.48438 0.085938-0.64062 0.25-0.14844 0.15625-0.21875 0.375-0.21875 0.65625 0 0.29297 0.070313 0.51562 0.21875 0.67188 0.15625 0.15625 0.36719 0.23438 0.64062 0.23438 0.15625 0 0.30078-0.019531 0.4375-0.0625 0.13281-0.039062 0.25781-0.10938 0.375-0.20312v0.79688c-0.14844 0.0625-0.30469 0.10156-0.46875 0.125-0.15625 0.03125-0.3125 0.046875-0.46875 0.046875-0.55469 0-0.98438-0.14062-1.2969-0.42188s-0.46875-0.67578-0.46875-1.1875c0-0.5 0.15625-0.89062 0.46875-1.1719 0.3125-0.28906 0.74219-0.4375 1.2969-0.4375 0.16406 0 0.32031 0.015625 0.46875 0.046875 0.15625 0.03125 0.3125 0.074219 0.46875 0.125z"/>
  </symbol>
 </defs>
 <g>
  <path d="m572.54 73.695c2.3516-2.0156 5.8242-1.6797 7.8398 0.67188 2.0156 2.3516 1.6797 5.8242-0.67187 7.8398l-15.566 13.215c-2.3516 2.0156-5.8242 1.6797-7.8398-0.67188-2.0156-2.3516-1.6797-5.8242 0.67187-7.8398zm-166.88-6.3828c-2.0156-2.3516-1.6797-5.8242 0.67188-7.8398 2.3516-2.0156 5.8242-1.6797 7.8398 0.67188l13.215 15.566c2.0156 2.3516 1.6797 5.8242-0.67188 7.8398s-5.8242 1.6797-7.8398-0.67188zm54.098-28.449c-1.2305-7.2812 9.7422-9.1836 10.977-1.9023l3.5859 20.047c0.55859 3.0234-1.457 5.9375-4.5938 6.4961s-5.9375-1.457-6.4961-4.5938zm61.039 2.2422c2.4648-6.9453 12.992-3.1367 10.527 3.8086l-6.9453 19.152c-2.4648 6.9453-12.992 3.1367-10.527-3.8086zm45.359 199.36c2.0156 2.3516 1.6797 5.8242-0.67188 7.8398-2.3516 2.0156-5.8242 1.6797-7.8398-0.67188l-13.105-15.566c-2.0156-2.3516-1.6797-5.8242 0.67188-7.8398 2.3516-2.0156 5.8242-1.6797 7.8398 0.67188zm32.594-51.746c6.9453 2.4648 3.1367 12.992-3.8086 10.527l-19.152-6.9453c-6.9453-2.4648-3.1367-12.992 3.8086-10.527zm2.3516-61.039c7.2812-1.2305 9.1836 9.7422 1.9023 10.977l-20.047 3.5859c-3.0234 0.55859-5.9375-1.457-6.4961-4.5938-0.55859-3.0234 1.457-5.9375 4.5938-6.4961zm-153.55 48.16c-0.89453-7.2812 10.078-8.7344 11.09-1.3438 1.0078 7.7266 22.062 13.105 34.719 5.4883 2.9102-1.793 4.7031-3.9219 4.7031-6.0469 0-6.832-10.305-8.2891-20.496-9.7422-15.008-2.1289-30.129-4.3672-30.129-20.832 0-12.207 13.328-19.039 25.199-20.496v-4.9297c0-3.1367 2.4648-5.6016 5.8242-5.6016 3.2461 0 5.6016 2.6875 5.6016 5.7109l-0.11328 4.7031c27.105 3.2461 30.238 26.098 19.711 26.098-3.0234 0-5.6016-2.4648-5.6016-5.6016 0-7.7266-21.617-13.887-34.719-6.0469-2.9102 1.793-4.7031 3.9219-4.7031 6.0469 0 6.832 10.305 8.2891 20.496 9.7422 15.008 2.1289 30.129 4.3672 30.129 20.832 0 12.32-13.664 19.152-25.312 20.496l-0.11328 4.9297c0 7.3906-11.199 7.3906-11.199 0v-4.9297c-10.973-1.2266-23.629-7.2773-25.086-18.477zm30.801-90.273c40.32 0 73.023 32.703 73.023 73.137 0 29.68-17.809 55.777-44.238 67.199h11.426c3.0234 0 5.6016 2.4648 5.6016 5.6016v34.16c0 3.1367-2.4648 5.6016-5.6016 5.6016h-2.1289v22.961h8.7344c3.1367 0 5.6016 2.4648 5.6016 5.6016v28.559h2.4648c3.1367 0 5.6016 2.4648 5.6016 5.6016v34.273c0 3.0234-2.4648 5.6016-5.6016 5.6016h-8.9609v23.07h1.3438c3.1367 0 5.6016 2.4648 5.6016 5.6016v34.16c0 3.1367-2.4648 5.6016-5.6016 5.6016l-3.1367-0.007813v23.406c2.0156 0.78516 3.4727 2.8008 3.4727 5.1523v34.273c0 3.0234-2.4648 5.6016-5.6016 5.6016h-82.207c-13.215 12.879-31.246 20.832-51.07 20.832-19.938 0-37.969-7.9531-51.07-20.832h-71.566c-3.0234 0-5.6016-2.4648-5.6016-5.6016v-34.273c0-3.0234 2.4648-5.6016 5.6016-5.6016h10.078v-23.07h-16.688c-3.1367 0-5.6016-2.4648-5.6016-5.6016v-34.16c0-3.1367 2.4648-5.6016 5.6016-5.6016h16.688v-23.07h-28.676l-5.8242 104.95c-2.4648 43.344-59.809 42-59.809-1.3438v-133.84c0-32.145 11.312-47.602 44.801-47.602h75.266v-16.238c-1.9023 0.44922-3.8086 0.67188-5.8242 0.67188h-135.63v224.11c0 7.3906-11.199 7.3906-11.199 0v-224.11c-22.176-1.9023-32.594-29.23-16.465-45.246 4.3672-4.3672 10.078-7.168 16.465-7.7266v-13.441c0-19.488-23.633-29.344-37.52-15.566-4.0312 4.0312-6.4961 9.5195-6.4961 15.566 0 7.3906-11.199 7.3906-11.199 0 0-18.367 14.895-33.152 33.152-33.152 18.258 0 33.152 14.895 33.152 33.152v13.328h110.77l42-68.098c1.5664-2.4648 3.2461-4.8164 5.0391-6.9453-33.938 0.22266-62.047-27.551-62.047-61.824 0-34.16 27.664-61.824 61.824-61.824 34.16 0 61.824 27.664 61.824 61.824 0 17.922-7.6172 34.16-19.938 45.473l4.4805 1.1211c7.8398 2.3516 15.121 7.168 21.055 14.449 8.3984 10.305 13.887 25.762 13.887 46.258v123.09c0 15.008-6.6094 31.473-19.375 42h1.9023c3.0234 0 5.6016 2.4648 5.6016 5.6016v17.246c9.4062-0.11328 18.48 1.457 26.879 4.5938v-21.84c0-3.0234 2.4648-5.6016 5.6016-5.6016h8.9609v-23.07h-2.4648c-3.1367 0-5.6016-2.4648-5.6016-5.6016v-28.559l-8.625-0.007813c-3.1367 0-5.6016-2.4648-5.6016-5.6016v-34.273c0-3.0234 2.4648-5.6016 5.6016-5.6016h2.1289v-28.559c0-3.1367 2.4648-5.6016 5.6016-5.6016h31.359c-47.266-20.273-59.473-82.207-22.848-118.83 13.215-13.324 31.469-21.5 51.629-21.5zm43.68 29.344c-24.191-24.191-63.281-24.191-87.473 0s-24.191 63.281 0 87.473c24.191 24.191 63.281 24.191 87.473 0 24.191-24.191 24.191-63.277 0-87.473zm-165.76 360.75c-0.89453-7.2812 10.191-8.7344 11.09-1.3438 1.0078 7.7266 22.062 13.105 34.719 5.4883 2.9102-1.793 4.7031-3.9219 4.7031-6.0469 0-6.832-10.305-8.2891-20.496-9.7422-15.008-2.1289-30.129-4.3672-30.129-20.832 0-12.207 13.328-19.039 25.199-20.496v-4.9297c0-3.1367 2.4648-5.6016 5.8242-5.6016 3.2461 0 5.7109 2.6875 5.6016 5.7109l-0.11328 4.7031c27.105 3.2461 30.238 26.098 19.711 26.098-3.0234 0-5.6016-2.4648-5.6016-5.6016 0-7.7266-21.617-13.887-34.719-6.0469-2.9102 1.793-4.7031 3.9219-4.7031 6.0469 0 6.832 10.305 8.2891 20.496 9.7422 15.008 2.1289 30.129 4.3672 30.129 20.832 0 12.32-13.664 19.152-25.312 20.496l-0.11328 4.9297c0 7.3906-11.199 7.3906-11.199 0v-4.9297c-10.977-1.2305-23.633-7.2773-25.086-18.477zm67.758-80.191c0.78516 0.44922 1.5664 0.89453 2.3516 1.3438h86.801v-23.07h-89.152zm15.906 12.543c6.2734 6.6094 11.312 14.449 14.895 23.07h65.297v-23.07zm18.367 34.273c1.6797 7.5039 2.2383 15.23 1.457 23.07h51.52v-23.07zm-0.44922 34.16c-2.1289 8.3984-5.7109 16.129-10.414 23.07h67.199v-23.07zm-131.26 23.07c-4.7031-6.9453-8.2891-14.672-10.305-23.07h-46.258v23.07zm-12.32-34.16c-0.67188-7.7266-0.22266-15.566 1.457-23.07h-30.238v23.07zm5.0391-34.27c3.4727-8.625 8.625-16.465 14.895-23.07h-70.895v23.07zm28.559-34.273c7.9531-5.1523 17.137-8.7344 26.879-10.414v-12.656h-89.152v23.07zm82.883 17.918c-24.078-24.078-63.168-24.305-87.473 0-24.191 24.191-24.191 63.391 0 87.473 24.527 24.527 64.176 24.191 88.48-1.0078 23.184-23.969 22.848-62.605-1.0078-86.465zm82.207-177.74h-89.152v23.07h89.152zm-96.883 57.23h89.152v-22.961l-89.152 0.003906zm103.49 11.203h-89.152v23.07h89.152zm-0.78125 57.23h8.9609v-23.07h-89.152v23.07zm-215.6-96.098 50.961-76.496c1.6797-2.5742 5.1523-3.2461 7.7266-1.5664 2.5742 1.6797 3.2461 5.1523 1.5664 7.7266l-51.969 77.953v27.328c0 3.0234-2.4648 5.6016-5.6016 5.6016h-80.863c-26.77 0-33.602 10.078-33.602 36.398v133.95c0 29.008 35.84 29.793 37.406 0.78516l6.1602-109.87c0.11328-3.2461 2.4648-5.6016 5.6016-5.6016h105.39c12.32 0 21.727-4.7031 28.336-11.535 8.1758-8.3984 12.207-20.047 12.207-30.465l0.007813-123.2c0-22.734-8.1758-44.238-26.992-49.953-14.895-4.4805-29.902 3.3594-38.527 17.359l-41.887 67.984c-0.89453 1.3438-1.5664 5.4883-6.0469 5.4883h-123.2c-13.441 0-20.609 16.465-10.863 26.207 4.4805 4.4805 8.7344 4.4805 14.223 4.4805h141.34c3.8047 0.003907 5.5977-0.89453 8.6211-2.5742zm49.055-212.02c-19.824-19.824-51.855-19.824-71.68 0-19.824 19.824-19.824 51.855 0 71.68 19.824 19.824 51.855 19.824 71.68 0 19.715-19.934 19.715-51.965 0-71.68z"/>
  <use x="70" y="576.800781" xlink:href="#s"/>
  <use x="74.109375" y="576.800781" xlink:href="#c"/>
  <use x="76.871094" y="576.800781" xlink:href="#a"/>
  <use x="80.667969" y="576.800781" xlink:href="#g"/>
  <use x="84.449219" y="576.800781" xlink:href="#b"/>
  <use x="87.125" y="576.800781" xlink:href="#a"/>
  <use x="90.921875" y="576.800781" xlink:href="#k"/>
  <use x="96.882812" y="576.800781" xlink:href="#j"/>
  <use x="100.890625" y="576.800781" xlink:href="#f"/>
  <use x="106.488281" y="576.800781" xlink:href="#e"/>
  <use x="108.925781" y="576.800781" xlink:href="#a"/>
  <use x="112.722656" y="576.800781" xlink:href="#b"/>
  <use x="115.402344" y="576.800781" xlink:href="#i"/>
  <use x="119.269531" y="576.800781" xlink:href="#h"/>
  <use x="123.257812" y="576.800781" xlink:href="#g"/>
  <use x="127.035156" y="576.800781" xlink:href="#c"/>
  <use x="129.796875" y="576.800781" xlink:href="#i"/>
  <use x="131.71875" y="576.800781" xlink:href="#f"/>
  <use x="70" y="582.398437" xlink:href="#e"/>
  <use x="72.4375" y="582.398437" xlink:href="#c"/>
  <use x="75.199219" y="582.398437" xlink:href="#d"/>
  <use x="79.046875" y="582.398437" xlink:href="#r"/>
  <use x="86.828125" y="582.398437" xlink:href="#b"/>
  <use x="89.507812" y="582.398437" xlink:href="#h"/>
  <use x="93.492188" y="582.398437" xlink:href="#a"/>
  <use x="99.242188" y="582.398437" xlink:href="#q"/>
  <use x="103.929688" y="582.398437" xlink:href="#d"/>
  <use x="107.773438" y="582.398437" xlink:href="#p"/>
  <use x="111.761719" y="582.398437" xlink:href="#o"/>
  <use x="117.699219" y="582.398437" xlink:href="#n"/>
  <use x="121.800781" y="582.398437" xlink:href="#c"/>
  <use x="124.5625" y="582.398437" xlink:href="#d"/>
  <use x="128.410156" y="582.398437" xlink:href="#m"/>
  <use x="130.332031" y="582.398437" xlink:href="#a"/>
  <use x="134.128906" y="582.398437" xlink:href="#l"/>
  <use x="137.449219" y="582.398437" xlink:href="#b"/>
 </g>
</svg>
