<?xml version="1.0" encoding="UTF-8"?>
<svg width="700pt" height="700pt" version="1.1" viewBox="0 0 700 700" xmlns="http://www.w3.org/2000/svg">
 <g>
  <path d="m583.64 251.05h17.5v46.305h-17.5z"/>
  <path d="m363.91 273.28h30.711v17.5h-30.711z"/>
  <path d="m98.859 138.11v254.84h33.285c3.9727 16.574 18.812 28.945 36.574 28.945s32.586-12.391 36.559-28.945h251.6c3.9727 16.574 18.797 28.945 36.559 28.945 17.762 0 32.602-12.391 36.574-28.945h43.645v-142.98l-89.426-111.86zm69.84 266.28c-11.148 0-20.195-9.0664-20.195-20.195 0-11.129 9.0664-20.195 20.195-20.195 11.129 0 20.195 9.0664 20.195 20.195 0 11.148-9.0469 20.195-20.195 20.195zm324.73 0c-11.129 0-20.176-9.0664-20.176-20.195 0-11.129 9.0664-20.195 20.176-20.195 11.148 0 20.195 9.0664 20.195 20.195 0 11.148-9.0469 20.195-20.195 20.195zm62.719-148.28v119.33h-26.145c-3.9727-16.555-18.812-28.945-36.574-28.945-17.762 0-32.586 12.391-36.559 28.945h-251.6c-3.9727-16.555-18.812-28.945-36.574-28.945s-32.602 12.391-36.574 28.945h-15.766v-65.469h171.54v-17.5h-171.54v-91.387h171.54v-17.5l-171.54 0.003906v-27.984h243.64v82.844h-171.54v17.5h367.57zm-178.66-17.66v-82.844h98.316l66.219 82.844z"/>
 </g>
</svg>
